# xmcd CD database file
#
# Track frame offsets:
#	150
#	14351
#	29954
#	42672
#	53480
#	66928
#	79696
#	89710
#	99186
#	109883
#	124950
#	134551
#	145874
#	159727
#	173244
#	185977
#	199794
#	213012
#	226110
#	235900
#
# Disc length: 3336 seconds
#
# Revision: 0
# Processed by: cddbd v1.5.2PL0 Copyright (c) Steve Scherf et al.
# Submitted via: CDex 1.70beta2
#
DISCID=260d0614
DTITLE=Etta James - The Anthology - Disc 3
DYEAR=2013
DGENRE=Jazz
TTITLE0=I Just Want To Make Love To You
TTITLE1=One For My Baby (And One More For The Road)
TTITLE2=It's Too Soon To Know
TTITLE3=Baby Baby, Every Night
TTITLE4=Foll That I am
TTITLE5=Be Mine
TTITLE6=By The Light Of The Silvery Moon
TTITLE7=Come That Way
TTITLE8=Fools We Mortals Be
TTITLE9=It Could Happen To You
TTITLE10=Waiting For Charlie To Come Home
TTITLE11=Hold Me, Squeeze Me
TTITLE12=My Dearest Darling
TTITLE13=Trust In Me
TTITLE14=Spoonfull
TTITLE15=I Hope You're Satisfied
TTITLE16=Market Place
TTITLE17=Hey Henry (Doin' Fine Henry)
TTITLE18=Tough Lover
TTITLE19=Seven Day Fool
EXTD=YEAR: 2013
EXTT0=
EXTT1=
EXTT2=
EXTT3=
EXTT4=
EXTT5=
EXTT6=
EXTT7=
EXTT8=
EXTT9=
EXTT10=
EXTT11=
EXTT12=
EXTT13=
EXTT14=
EXTT15=
EXTT16=
EXTT17=
EXTT18=
EXTT19=
PLAYORDER=
